<svg width="1440" height="1770" viewBox="0 0 1440 1770" fill="none" xmlns="http://www.w3.org/2000/svg">
<g clip-path="url(#clip0_381_1412)">
<rect width="1600" height="1928" fill="url(#paint0_linear_381_1412)"/>
<mask id="mask0_381_1412" style="mask-type:luminance" maskUnits="userSpaceOnUse" x="0" y="0" width="1440" height="1930">
<rect width="1440" height="1930" fill="white"/>
</mask>
<g mask="url(#mask0_381_1412)">
<path fill-rule="evenodd" clip-rule="evenodd" d="M1225 201C1225.79 201 1226.56 200.681 1227.12 200.121C1227.68 199.563 1228 198.79 1228 198C1228 197.21 1227.68 196.437 1227.12 195.879C1226.56 195.32 1225.79 195 1225 195C1224.21 195 1223.44 195.32 1222.88 195.879C1222.32 196.437 1222 197.21 1222 198C1222 198.79 1222.32 199.563 1222.88 200.121C1223.44 200.681 1224.21 201 1225 201Z" fill="#130D3A"/>
<path fill-rule="evenodd" clip-rule="evenodd" d="M1257.99 201H1258.01C1259.66 201 1261 199.656 1261 198C1261 196.344 1259.66 195 1258.01 195H1257.99C1256.34 195 1255 196.344 1255 198C1255 199.656 1256.34 201 1257.99 201Z" fill="#130D3A"/>
<path fill-rule="evenodd" clip-rule="evenodd" d="M1241.99 201H1242.01C1243.66 201 1245 199.656 1245 198C1245 196.344 1243.66 195 1242.01 195H1241.99C1240.34 195 1239 196.344 1239 198C1239 199.656 1240.34 201 1241.99 201Z" fill="#130D3A"/>
<path fill-rule="evenodd" clip-rule="evenodd" d="M1275 201C1275.79 201 1276.56 200.681 1277.12 200.121C1277.68 199.563 1278 198.79 1278 198C1278 197.21 1277.68 196.437 1277.12 195.879C1276.56 195.32 1275.79 195 1275 195C1274.21 195 1273.44 195.32 1272.88 195.879C1272.32 196.437 1272 197.21 1272 198C1272 198.79 1272.32 199.563 1272.88 200.121C1273.44 200.681 1274.21 201 1275 201Z" fill="#130D3A"/>
<path fill-rule="evenodd" clip-rule="evenodd" d="M1292 201C1292.79 201 1293.56 200.681 1294.12 200.121C1294.68 199.563 1295 198.79 1295 198C1295 197.21 1294.68 196.437 1294.12 195.879C1293.56 195.32 1292.79 195 1292 195C1291.21 195 1290.44 195.32 1289.88 195.879C1289.32 196.437 1289 197.21 1289 198C1289 198.79 1289.32 199.563 1289.88 200.121C1290.44 200.681 1291.21 201 1292 201Z" fill="#130D3A"/>
<path fill-rule="evenodd" clip-rule="evenodd" d="M1324.99 201H1325.01C1326.66 201 1328 199.656 1328 198C1328 196.344 1326.66 195 1325.01 195H1324.99C1323.34 195 1322 196.344 1322 198C1322 199.656 1323.34 201 1324.99 201Z" fill="#130D3A"/>
<path fill-rule="evenodd" clip-rule="evenodd" d="M1307.99 201H1308.01C1309.66 201 1311 199.656 1311 198C1311 196.344 1309.66 195 1308.01 195H1307.99C1306.34 195 1305 196.344 1305 198C1305 199.656 1306.34 201 1307.99 201Z" fill="#130D3A"/>
<mask id="mask1_381_1412" style="mask-type:luminance" maskUnits="userSpaceOnUse" x="1338" y="194" width="7" height="8">
<path fill-rule="evenodd" clip-rule="evenodd" d="M1338.3 194.785H1344.7V201.185H1338.3V194.785Z" fill="white"/>
</mask>
<g mask="url(#mask1_381_1412)">
<path fill-rule="evenodd" clip-rule="evenodd" d="M1341.5 201.185C1342.35 201.185 1343.17 200.844 1343.77 200.248C1344.36 199.652 1344.7 198.828 1344.7 197.985C1344.7 197.142 1344.36 196.318 1343.77 195.723C1343.17 195.126 1342.35 194.785 1341.5 194.785C1340.66 194.785 1339.84 195.126 1339.24 195.723C1338.65 196.318 1338.3 197.142 1338.3 197.985C1338.3 198.828 1338.65 199.652 1339.24 200.248C1339.84 200.844 1340.66 201.185 1341.5 201.185Z" fill="#130D3A"/>
</g>
<path fill-rule="evenodd" clip-rule="evenodd" d="M1225 188C1225.79 188 1226.56 187.681 1227.12 187.121C1227.68 186.563 1228 185.789 1228 185C1228 184.21 1227.68 183.437 1227.12 182.877C1226.56 182.319 1225.79 182 1225 182C1224.21 182 1223.44 182.319 1222.88 182.877C1222.32 183.437 1222 184.21 1222 185C1222 185.789 1222.32 186.563 1222.88 187.121C1223.44 187.681 1224.21 188 1225 188Z" fill="#130D3A"/>
<path fill-rule="evenodd" clip-rule="evenodd" d="M1257.99 188H1258.01C1259.66 188 1261 186.656 1261 185C1261 183.344 1259.66 182 1258.01 182H1257.99C1256.34 182 1255 183.344 1255 185C1255 186.656 1256.34 188 1257.99 188Z" fill="#130D3A"/>
<path fill-rule="evenodd" clip-rule="evenodd" d="M1241.99 188H1242.01C1243.66 188 1245 186.656 1245 185C1245 183.344 1243.66 182 1242.01 182H1241.99C1240.34 182 1239 183.344 1239 185C1239 186.656 1240.34 188 1241.99 188Z" fill="#130D3A"/>
<path fill-rule="evenodd" clip-rule="evenodd" d="M1275 188C1275.79 188 1276.56 187.681 1277.12 187.121C1277.68 186.563 1278 185.789 1278 185C1278 184.21 1277.68 183.437 1277.12 182.877C1276.56 182.319 1275.79 182 1275 182C1274.21 182 1273.44 182.319 1272.88 182.877C1272.32 183.437 1272 184.21 1272 185C1272 185.789 1272.32 186.563 1272.88 187.121C1273.44 187.681 1274.21 188 1275 188Z" fill="#130D3A"/>
<path fill-rule="evenodd" clip-rule="evenodd" d="M1292 188C1292.79 188 1293.56 187.681 1294.12 187.121C1294.68 186.563 1295 185.789 1295 185C1295 184.21 1294.68 183.437 1294.12 182.877C1293.56 182.319 1292.79 182 1292 182C1291.21 182 1290.44 182.319 1289.88 182.877C1289.32 183.437 1289 184.21 1289 185C1289 185.789 1289.32 186.563 1289.88 187.121C1290.44 187.681 1291.21 188 1292 188Z" fill="#130D3A"/>
<path fill-rule="evenodd" clip-rule="evenodd" d="M1324.99 188H1325.01C1326.66 188 1328 186.656 1328 185C1328 183.344 1326.66 182 1325.01 182H1324.99C1323.34 182 1322 183.344 1322 185C1322 186.656 1323.34 188 1324.99 188Z" fill="#130D3A"/>
<path fill-rule="evenodd" clip-rule="evenodd" d="M1307.99 188H1308.01C1309.66 188 1311 186.656 1311 185C1311 183.344 1309.66 182 1308.01 182H1307.99C1306.34 182 1305 183.344 1305 185C1305 186.656 1306.34 188 1307.99 188Z" fill="#130D3A"/>
<mask id="mask2_381_1412" style="mask-type:luminance" maskUnits="userSpaceOnUse" x="1338" y="181" width="7" height="7">
<path fill-rule="evenodd" clip-rule="evenodd" d="M1338.3 181.441H1344.7V187.841H1338.3V181.441Z" fill="white"/>
</mask>
<g mask="url(#mask2_381_1412)">
<path fill-rule="evenodd" clip-rule="evenodd" d="M1341.5 187.841C1342.35 187.841 1343.17 187.501 1343.77 186.904C1344.36 186.309 1344.7 185.483 1344.7 184.641C1344.7 183.798 1344.36 182.974 1343.77 182.377C1343.17 181.782 1342.35 181.441 1341.5 181.441C1340.66 181.441 1339.84 181.782 1339.24 182.377C1338.65 182.974 1338.3 183.798 1338.3 184.641C1338.3 185.483 1338.65 186.309 1339.24 186.904C1339.84 187.501 1340.66 187.841 1341.5 187.841Z" fill="#130D3A"/>
</g>
<path fill-rule="evenodd" clip-rule="evenodd" d="M1225 214C1225.79 214 1226.56 213.681 1227.12 213.121C1227.68 212.563 1228 211.79 1228 211C1228 210.211 1227.68 209.437 1227.12 208.879C1226.56 208.32 1225.79 208 1225 208C1224.21 208 1223.44 208.32 1222.88 208.879C1222.32 209.437 1222 210.211 1222 211C1222 211.79 1222.32 212.563 1222.88 213.121C1223.44 213.681 1224.21 214 1225 214Z" fill="#130D3A"/>
<path fill-rule="evenodd" clip-rule="evenodd" d="M1257.99 214H1258.01C1259.66 214 1261 212.656 1261 211C1261 209.344 1259.66 208 1258.01 208H1257.99C1256.34 208 1255 209.344 1255 211C1255 212.656 1256.34 214 1257.99 214Z" fill="#130D3A"/>
<path fill-rule="evenodd" clip-rule="evenodd" d="M1241.99 214H1242.01C1243.66 214 1245 212.656 1245 211C1245 209.344 1243.66 208 1242.01 208H1241.99C1240.34 208 1239 209.344 1239 211C1239 212.656 1240.34 214 1241.99 214Z" fill="#130D3A"/>
<path fill-rule="evenodd" clip-rule="evenodd" d="M1275 214C1275.79 214 1276.56 213.681 1277.12 213.121C1277.68 212.563 1278 211.79 1278 211C1278 210.211 1277.68 209.437 1277.12 208.879C1276.56 208.32 1275.79 208 1275 208C1274.21 208 1273.44 208.32 1272.88 208.879C1272.32 209.437 1272 210.211 1272 211C1272 211.79 1272.32 212.563 1272.88 213.121C1273.44 213.681 1274.21 214 1275 214Z" fill="#130D3A"/>
<path fill-rule="evenodd" clip-rule="evenodd" d="M1292 214C1292.79 214 1293.56 213.681 1294.12 213.121C1294.68 212.563 1295 211.79 1295 211C1295 210.211 1294.68 209.437 1294.12 208.879C1293.56 208.32 1292.79 208 1292 208C1291.21 208 1290.44 208.32 1289.88 208.879C1289.32 209.437 1289 210.211 1289 211C1289 211.79 1289.32 212.563 1289.88 213.121C1290.44 213.681 1291.21 214 1292 214Z" fill="#130D3A"/>
<path fill-rule="evenodd" clip-rule="evenodd" d="M1324.99 214H1325.01C1326.66 214 1328 212.656 1328 211C1328 209.344 1326.66 208 1325.01 208H1324.99C1323.34 208 1322 209.344 1322 211C1322 212.656 1323.34 214 1324.99 214Z" fill="#130D3A"/>
<path fill-rule="evenodd" clip-rule="evenodd" d="M1307.99 214H1308.01C1309.66 214 1311 212.656 1311 211C1311 209.344 1309.66 208 1308.01 208H1307.99C1306.34 208 1305 209.344 1305 211C1305 212.656 1306.34 214 1307.99 214Z" fill="#130D3A"/>
<mask id="mask3_381_1412" style="mask-type:luminance" maskUnits="userSpaceOnUse" x="1338" y="208" width="7" height="7">
<path fill-rule="evenodd" clip-rule="evenodd" d="M1338.3 208.129H1344.7V214.529H1338.3V208.129Z" fill="white"/>
</mask>
<g mask="url(#mask3_381_1412)">
<path fill-rule="evenodd" clip-rule="evenodd" d="M1341.5 214.529C1342.35 214.529 1343.17 214.188 1343.77 213.591C1344.36 212.996 1344.7 212.172 1344.7 211.329C1344.7 210.487 1344.36 209.662 1343.77 209.067C1343.17 208.47 1342.35 208.129 1341.5 208.129C1340.66 208.129 1339.84 208.47 1339.24 209.067C1338.65 209.662 1338.3 210.487 1338.3 211.329C1338.3 212.172 1338.65 212.996 1339.24 213.591C1339.84 214.188 1340.66 214.529 1341.5 214.529Z" fill="#130D3A"/>
</g>
<path fill-rule="evenodd" clip-rule="evenodd" d="M1225 227C1225.79 227 1226.56 226.681 1227.12 226.121C1227.68 225.563 1228 224.79 1228 224C1228 223.21 1227.68 222.437 1227.12 221.879C1226.56 221.32 1225.79 221 1225 221C1224.21 221 1223.44 221.32 1222.88 221.879C1222.32 222.437 1222 223.21 1222 224C1222 224.79 1222.32 225.563 1222.88 226.121C1223.44 226.681 1224.21 227 1225 227Z" fill="#130D3A"/>
<path fill-rule="evenodd" clip-rule="evenodd" d="M1257.99 227H1258.01C1259.66 227 1261 225.656 1261 224C1261 222.344 1259.66 221 1258.01 221H1257.99C1256.34 221 1255 222.344 1255 224C1255 225.656 1256.34 227 1257.99 227Z" fill="#130D3A"/>
<path fill-rule="evenodd" clip-rule="evenodd" d="M1241.99 227H1242.01C1243.66 227 1245 225.656 1245 224C1245 222.344 1243.66 221 1242.01 221H1241.99C1240.34 221 1239 222.344 1239 224C1239 225.656 1240.34 227 1241.99 227Z" fill="#130D3A"/>
<path fill-rule="evenodd" clip-rule="evenodd" d="M1275 227C1275.79 227 1276.56 226.681 1277.12 226.121C1277.68 225.563 1278 224.79 1278 224C1278 223.21 1277.68 222.437 1277.12 221.879C1276.56 221.32 1275.79 221 1275 221C1274.21 221 1273.44 221.32 1272.88 221.879C1272.32 222.437 1272 223.21 1272 224C1272 224.79 1272.32 225.563 1272.88 226.121C1273.44 226.681 1274.21 227 1275 227Z" fill="#130D3A"/>
<path fill-rule="evenodd" clip-rule="evenodd" d="M1292 227C1292.79 227 1293.56 226.681 1294.12 226.121C1294.68 225.563 1295 224.79 1295 224C1295 223.21 1294.68 222.437 1294.12 221.879C1293.56 221.32 1292.79 221 1292 221C1291.21 221 1290.44 221.32 1289.88 221.879C1289.32 222.437 1289 223.21 1289 224C1289 224.79 1289.32 225.563 1289.88 226.121C1290.44 226.681 1291.21 227 1292 227Z" fill="#130D3A"/>
<path fill-rule="evenodd" clip-rule="evenodd" d="M1324.99 227H1325.01C1326.66 227 1328 225.656 1328 224C1328 222.344 1326.66 221 1325.01 221H1324.99C1323.34 221 1322 222.344 1322 224C1322 225.656 1323.34 227 1324.99 227Z" fill="#130D3A"/>
<path fill-rule="evenodd" clip-rule="evenodd" d="M1307.99 227H1308.01C1309.66 227 1311 225.656 1311 224C1311 222.344 1309.66 221 1308.01 221H1307.99C1306.34 221 1305 222.344 1305 224C1305 225.656 1306.34 227 1307.99 227Z" fill="#130D3A"/>
<mask id="mask4_381_1412" style="mask-type:luminance" maskUnits="userSpaceOnUse" x="1338" y="221" width="7" height="7">
<path fill-rule="evenodd" clip-rule="evenodd" d="M1338.3 221.477H1344.7V227.877H1338.3V221.477Z" fill="white"/>
</mask>
<g mask="url(#mask4_381_1412)">
<path fill-rule="evenodd" clip-rule="evenodd" d="M1341.5 227.877C1342.35 227.877 1343.17 227.536 1343.77 226.939C1344.36 226.344 1344.7 225.52 1344.7 224.677C1344.7 223.833 1344.36 223.009 1343.77 222.414C1343.17 221.817 1342.35 221.477 1341.5 221.477C1340.66 221.477 1339.84 221.817 1339.24 222.414C1338.65 223.009 1338.3 223.833 1338.3 224.677C1338.3 225.52 1338.65 226.344 1339.24 226.939C1339.84 227.536 1340.66 227.877 1341.5 227.877Z" fill="#130D3A"/>
</g>
<path fill-rule="evenodd" clip-rule="evenodd" d="M1225 241C1225.79 241 1226.56 240.681 1227.12 240.121C1227.68 239.563 1228 238.79 1228 238C1228 237.211 1227.68 236.437 1227.12 235.879C1226.56 235.32 1225.79 235 1225 235C1224.21 235 1223.44 235.32 1222.88 235.879C1222.32 236.437 1222 237.211 1222 238C1222 238.79 1222.32 239.563 1222.88 240.121C1223.44 240.681 1224.21 241 1225 241Z" fill="#130D3A"/>
<path fill-rule="evenodd" clip-rule="evenodd" d="M1257.99 241H1258.01C1259.66 241 1261 239.656 1261 238C1261 236.344 1259.66 235 1258.01 235H1257.99C1256.34 235 1255 236.344 1255 238C1255 239.656 1256.34 241 1257.99 241Z" fill="#130D3A"/>
<path fill-rule="evenodd" clip-rule="evenodd" d="M1241.99 241H1242.01C1243.66 241 1245 239.656 1245 238C1245 236.344 1243.66 235 1242.01 235H1241.99C1240.34 235 1239 236.344 1239 238C1239 239.656 1240.34 241 1241.99 241Z" fill="#130D3A"/>
<path fill-rule="evenodd" clip-rule="evenodd" d="M1275 241C1275.79 241 1276.56 240.681 1277.12 240.121C1277.68 239.563 1278 238.79 1278 238C1278 237.211 1277.68 236.437 1277.12 235.879C1276.56 235.32 1275.79 235 1275 235C1274.21 235 1273.44 235.32 1272.88 235.879C1272.32 236.437 1272 237.211 1272 238C1272 238.79 1272.32 239.563 1272.88 240.121C1273.44 240.681 1274.21 241 1275 241Z" fill="#130D3A"/>
<path fill-rule="evenodd" clip-rule="evenodd" d="M1292 241C1292.79 241 1293.56 240.681 1294.12 240.121C1294.68 239.563 1295 238.79 1295 238C1295 237.211 1294.68 236.437 1294.12 235.879C1293.56 235.32 1292.79 235 1292 235C1291.21 235 1290.44 235.32 1289.88 235.879C1289.32 236.437 1289 237.211 1289 238C1289 238.79 1289.32 239.563 1289.88 240.121C1290.44 240.681 1291.21 241 1292 241Z" fill="#130D3A"/>
<path fill-rule="evenodd" clip-rule="evenodd" d="M1324.99 241H1325.01C1326.66 241 1328 239.656 1328 238C1328 236.344 1326.66 235 1325.01 235H1324.99C1323.34 235 1322 236.344 1322 238C1322 239.656 1323.34 241 1324.99 241Z" fill="#130D3A"/>
<path fill-rule="evenodd" clip-rule="evenodd" d="M1307.99 241H1308.01C1309.66 241 1311 239.656 1311 238C1311 236.344 1309.66 235 1308.01 235H1307.99C1306.34 235 1305 236.344 1305 238C1305 239.656 1306.34 241 1307.99 241Z" fill="#130D3A"/>
<mask id="mask5_381_1412" style="mask-type:luminance" maskUnits="userSpaceOnUse" x="1338" y="234" width="7" height="7">
<path fill-rule="evenodd" clip-rule="evenodd" d="M1338.3 234.219H1344.7V240.619H1338.3V234.219Z" fill="white"/>
</mask>
<g mask="url(#mask5_381_1412)">
<path fill-rule="evenodd" clip-rule="evenodd" d="M1341.5 240.619C1342.35 240.619 1343.17 240.278 1343.77 239.681C1344.36 239.086 1344.7 238.262 1344.7 237.419C1344.7 236.577 1344.36 235.752 1343.77 235.156C1343.17 234.56 1342.35 234.219 1341.5 234.219C1340.66 234.219 1339.84 234.56 1339.24 235.156C1338.65 235.752 1338.3 236.577 1338.3 237.419C1338.3 238.262 1338.65 239.086 1339.24 239.681C1339.84 240.278 1340.66 240.619 1341.5 240.619Z" fill="#130D3A"/>
</g>
<path fill-rule="evenodd" clip-rule="evenodd" d="M1225 254C1225.79 254 1226.56 253.681 1227.12 253.122C1227.68 252.563 1228 251.79 1228 251C1228 250.211 1227.68 249.437 1227.12 248.879C1226.56 248.32 1225.79 248 1225 248C1224.21 248 1223.44 248.32 1222.88 248.879C1222.32 249.437 1222 250.211 1222 251C1222 251.79 1222.32 252.563 1222.88 253.122C1223.44 253.681 1224.21 254 1225 254Z" fill="#130D3A"/>
<path fill-rule="evenodd" clip-rule="evenodd" d="M1257.99 254H1258.01C1259.66 254 1261 252.656 1261 251C1261 249.344 1259.66 248 1258.01 248H1257.99C1256.34 248 1255 249.344 1255 251C1255 252.656 1256.34 254 1257.99 254Z" fill="#130D3A"/>
<path fill-rule="evenodd" clip-rule="evenodd" d="M1241.99 254H1242.01C1243.66 254 1245 252.656 1245 251C1245 249.344 1243.66 248 1242.01 248H1241.99C1240.34 248 1239 249.344 1239 251C1239 252.656 1240.34 254 1241.99 254Z" fill="#130D3A"/>
<path fill-rule="evenodd" clip-rule="evenodd" d="M1275 254C1275.79 254 1276.56 253.681 1277.12 253.122C1277.68 252.563 1278 251.79 1278 251C1278 250.211 1277.68 249.437 1277.12 248.879C1276.56 248.32 1275.79 248 1275 248C1274.21 248 1273.44 248.32 1272.88 248.879C1272.32 249.437 1272 250.211 1272 251C1272 251.79 1272.32 252.563 1272.88 253.122C1273.44 253.681 1274.21 254 1275 254Z" fill="#130D3A"/>
<path fill-rule="evenodd" clip-rule="evenodd" d="M1292 254C1292.79 254 1293.56 253.681 1294.12 253.122C1294.68 252.563 1295 251.79 1295 251C1295 250.211 1294.68 249.437 1294.12 248.879C1293.56 248.32 1292.79 248 1292 248C1291.21 248 1290.44 248.32 1289.88 248.879C1289.32 249.437 1289 250.211 1289 251C1289 251.79 1289.32 252.563 1289.88 253.122C1290.44 253.681 1291.21 254 1292 254Z" fill="#130D3A"/>
<path fill-rule="evenodd" clip-rule="evenodd" d="M1324.99 254H1325.01C1326.66 254 1328 252.656 1328 251C1328 249.344 1326.66 248 1325.01 248H1324.99C1323.34 248 1322 249.344 1322 251C1322 252.656 1323.34 254 1324.99 254Z" fill="#130D3A"/>
<path fill-rule="evenodd" clip-rule="evenodd" d="M1307.99 254H1308.01C1309.66 254 1311 252.656 1311 251C1311 249.344 1309.66 248 1308.01 248H1307.99C1306.34 248 1305 249.344 1305 251C1305 252.656 1306.34 254 1307.99 254Z" fill="#130D3A"/>
<mask id="mask6_381_1412" style="mask-type:luminance" maskUnits="userSpaceOnUse" x="1338" y="247" width="7" height="7">
<path fill-rule="evenodd" clip-rule="evenodd" d="M1338.3 247.562H1344.7V253.963H1338.3V247.562Z" fill="white"/>
</mask>
<g mask="url(#mask6_381_1412)">
<path fill-rule="evenodd" clip-rule="evenodd" d="M1341.5 253.963C1342.35 253.963 1343.17 253.622 1343.77 253.027C1344.36 252.43 1344.7 251.606 1344.7 250.763C1344.7 249.921 1344.36 249.095 1343.77 248.5C1343.17 247.903 1342.35 247.562 1341.5 247.562C1340.66 247.562 1339.84 247.903 1339.24 248.5C1338.65 249.095 1338.3 249.921 1338.3 250.763C1338.3 251.606 1338.65 252.43 1339.24 253.027C1339.84 253.622 1340.66 253.963 1341.5 253.963Z" fill="#130D3A"/>
</g>
<path fill-rule="evenodd" clip-rule="evenodd" d="M1225 267C1225.79 267 1226.56 266.681 1227.12 266.121C1227.68 265.563 1228 264.79 1228 264C1228 263.211 1227.68 262.437 1227.12 261.879C1226.56 261.32 1225.79 261 1225 261C1224.21 261 1223.44 261.32 1222.88 261.879C1222.32 262.437 1222 263.211 1222 264C1222 264.79 1222.32 265.563 1222.88 266.121C1223.44 266.681 1224.21 267 1225 267Z" fill="#130D3A"/>
<path fill-rule="evenodd" clip-rule="evenodd" d="M1257.99 267H1258.01C1259.66 267 1261 265.656 1261 264C1261 262.344 1259.66 261 1258.01 261H1257.99C1256.34 261 1255 262.344 1255 264C1255 265.656 1256.34 267 1257.99 267Z" fill="#130D3A"/>
<path fill-rule="evenodd" clip-rule="evenodd" d="M1241.99 267H1242.01C1243.66 267 1245 265.656 1245 264C1245 262.344 1243.66 261 1242.01 261H1241.99C1240.34 261 1239 262.344 1239 264C1239 265.656 1240.34 267 1241.99 267Z" fill="#130D3A"/>
<path fill-rule="evenodd" clip-rule="evenodd" d="M1275 267C1275.79 267 1276.56 266.681 1277.12 266.121C1277.68 265.563 1278 264.79 1278 264C1278 263.211 1277.68 262.437 1277.12 261.879C1276.56 261.32 1275.79 261 1275 261C1274.21 261 1273.44 261.32 1272.88 261.879C1272.32 262.437 1272 263.211 1272 264C1272 264.79 1272.32 265.563 1272.88 266.121C1273.44 266.681 1274.21 267 1275 267Z" fill="#130D3A"/>
<path fill-rule="evenodd" clip-rule="evenodd" d="M1292 267C1292.79 267 1293.56 266.681 1294.12 266.121C1294.68 265.563 1295 264.79 1295 264C1295 263.211 1294.68 262.437 1294.12 261.879C1293.56 261.32 1292.79 261 1292 261C1291.21 261 1290.44 261.32 1289.88 261.879C1289.32 262.437 1289 263.211 1289 264C1289 264.79 1289.32 265.563 1289.88 266.121C1290.44 266.681 1291.21 267 1292 267Z" fill="#130D3A"/>
<path fill-rule="evenodd" clip-rule="evenodd" d="M1324.99 267H1325.01C1326.66 267 1328 265.656 1328 264C1328 262.344 1326.66 261 1325.01 261H1324.99C1323.34 261 1322 262.344 1322 264C1322 265.656 1323.34 267 1324.99 267Z" fill="#130D3A"/>
<path fill-rule="evenodd" clip-rule="evenodd" d="M1307.99 267H1308.01C1309.66 267 1311 265.656 1311 264C1311 262.344 1309.66 261 1308.01 261H1307.99C1306.34 261 1305 262.344 1305 264C1305 265.656 1306.34 267 1307.99 267Z" fill="#130D3A"/>
<mask id="mask7_381_1412" style="mask-type:luminance" maskUnits="userSpaceOnUse" x="1338" y="260" width="7" height="8">
<path fill-rule="evenodd" clip-rule="evenodd" d="M1338.3 260.91H1344.7V267.31H1338.3V260.91Z" fill="white"/>
</mask>
<g mask="url(#mask7_381_1412)">
<path fill-rule="evenodd" clip-rule="evenodd" d="M1341.5 267.31C1342.35 267.31 1343.17 266.969 1343.77 266.373C1344.36 265.777 1344.7 264.953 1344.7 264.11C1344.7 263.269 1344.36 262.443 1343.77 261.848C1343.17 261.251 1342.35 260.91 1341.5 260.91C1340.66 260.91 1339.84 261.251 1339.24 261.848C1338.65 262.443 1338.3 263.269 1338.3 264.11C1338.3 264.953 1338.65 265.777 1339.24 266.373C1339.84 266.969 1340.66 267.31 1341.5 267.31Z" fill="#130D3A"/>
</g>
<path fill-rule="evenodd" clip-rule="evenodd" d="M1225 280C1225.79 280 1226.56 279.681 1227.12 279.122C1227.68 278.563 1228 277.79 1228 277C1228 276.211 1227.68 275.437 1227.12 274.879C1226.56 274.32 1225.79 274 1225 274C1224.21 274 1223.44 274.32 1222.88 274.879C1222.32 275.437 1222 276.211 1222 277C1222 277.79 1222.32 278.563 1222.88 279.122C1223.44 279.681 1224.21 280 1225 280Z" fill="#130D3A"/>
<path fill-rule="evenodd" clip-rule="evenodd" d="M1257.99 280H1258.01C1259.66 280 1261 278.658 1261 277C1261 275.344 1259.66 274 1258.01 274H1257.99C1256.34 274 1255 275.344 1255 277C1255 278.658 1256.34 280 1257.99 280Z" fill="#130D3A"/>
<path fill-rule="evenodd" clip-rule="evenodd" d="M1241.99 280H1242.01C1243.66 280 1245 278.658 1245 277C1245 275.344 1243.66 274 1242.01 274H1241.99C1240.34 274 1239 275.344 1239 277C1239 278.658 1240.34 280 1241.99 280Z" fill="#130D3A"/>
<path fill-rule="evenodd" clip-rule="evenodd" d="M1275 280C1275.79 280 1276.56 279.681 1277.12 279.122C1277.68 278.563 1278 277.79 1278 277C1278 276.211 1277.68 275.437 1277.12 274.879C1276.56 274.32 1275.79 274 1275 274C1274.21 274 1273.44 274.32 1272.88 274.879C1272.32 275.437 1272 276.211 1272 277C1272 277.79 1272.32 278.563 1272.88 279.122C1273.44 279.681 1274.21 280 1275 280Z" fill="#130D3A"/>
<path fill-rule="evenodd" clip-rule="evenodd" d="M1292 280C1292.79 280 1293.56 279.681 1294.12 279.122C1294.68 278.563 1295 277.79 1295 277C1295 276.211 1294.68 275.437 1294.12 274.879C1293.56 274.32 1292.79 274 1292 274C1291.21 274 1290.44 274.32 1289.88 274.879C1289.32 275.437 1289 276.211 1289 277C1289 277.79 1289.32 278.563 1289.88 279.122C1290.44 279.681 1291.21 280 1292 280Z" fill="#130D3A"/>
<path fill-rule="evenodd" clip-rule="evenodd" d="M1324.99 280H1325.01C1326.66 280 1328 278.658 1328 277C1328 275.344 1326.66 274 1325.01 274H1324.99C1323.34 274 1322 275.344 1322 277C1322 278.658 1323.34 280 1324.99 280Z" fill="#130D3A"/>
<path fill-rule="evenodd" clip-rule="evenodd" d="M1307.99 280H1308.01C1309.66 280 1311 278.658 1311 277C1311 275.344 1309.66 274 1308.01 274H1307.99C1306.34 274 1305 275.344 1305 277C1305 278.658 1306.34 280 1307.99 280Z" fill="#130D3A"/>
<mask id="mask8_381_1412" style="mask-type:luminance" maskUnits="userSpaceOnUse" x="1338" y="274" width="7" height="7">
<path fill-rule="evenodd" clip-rule="evenodd" d="M1338.3 274.254H1344.7V280.654H1338.3V274.254Z" fill="white"/>
</mask>
<g mask="url(#mask8_381_1412)">
<path fill-rule="evenodd" clip-rule="evenodd" d="M1341.5 280.654C1342.35 280.654 1343.17 280.313 1343.77 279.718C1344.36 279.121 1344.7 278.297 1344.7 277.454C1344.7 276.612 1344.36 275.787 1343.77 275.192C1343.17 274.595 1342.35 274.254 1341.5 274.254C1340.66 274.254 1339.84 274.595 1339.24 275.192C1338.65 275.787 1338.3 276.612 1338.3 277.454C1338.3 278.297 1338.65 279.121 1339.24 279.718C1339.84 280.313 1340.66 280.654 1341.5 280.654Z" fill="#130D3A"/>
</g>
<mask id="mask9_381_1412" style="mask-type:luminance" maskUnits="userSpaceOnUse" x="1222" y="287" width="6" height="6">
<path fill-rule="evenodd" clip-rule="evenodd" d="M1222 287H1228V293H1222V287Z" fill="white"/>
</mask>
<g mask="url(#mask9_381_1412)">
<path fill-rule="evenodd" clip-rule="evenodd" d="M1225 293C1225.79 293 1226.56 292.681 1227.12 292.121C1227.68 291.563 1228 290.789 1228 290C1228 289.21 1227.68 288.437 1227.12 287.877C1226.56 287.319 1225.79 287 1225 287C1224.21 287 1223.44 287.319 1222.88 287.877C1222.32 288.437 1222 289.21 1222 290C1222 290.789 1222.32 291.563 1222.88 292.121C1223.44 292.681 1224.21 293 1225 293Z" fill="#130D3A"/>
</g>
<mask id="mask10_381_1412" style="mask-type:luminance" maskUnits="userSpaceOnUse" x="1254" y="287" width="8" height="6">
<path fill-rule="evenodd" clip-rule="evenodd" d="M1254.99 287H1261.41V293H1254.99V287Z" fill="white"/>
</mask>
<g mask="url(#mask10_381_1412)">
<path fill-rule="evenodd" clip-rule="evenodd" d="M1258.19 293H1258.21C1259.98 293 1261.41 291.656 1261.41 290C1261.41 288.342 1259.98 287 1258.21 287H1258.19C1256.43 287 1254.99 288.342 1254.99 290C1254.99 291.656 1256.43 293 1258.19 293Z" fill="#130D3A"/>
</g>
<mask id="mask11_381_1412" style="mask-type:luminance" maskUnits="userSpaceOnUse" x="1238" y="287" width="7" height="6">
<path fill-rule="evenodd" clip-rule="evenodd" d="M1238.49 287H1244.91V293H1238.49V287Z" fill="white"/>
</mask>
<g mask="url(#mask11_381_1412)">
<path fill-rule="evenodd" clip-rule="evenodd" d="M1241.69 293H1241.71C1243.47 293 1244.91 291.656 1244.91 290C1244.91 288.342 1243.47 287 1241.71 287H1241.69C1239.93 287 1238.49 288.342 1238.49 290C1238.49 291.656 1239.93 293 1241.69 293Z" fill="#130D3A"/>
</g>
<mask id="mask12_381_1412" style="mask-type:luminance" maskUnits="userSpaceOnUse" x="1271" y="287" width="7" height="6">
<path fill-rule="evenodd" clip-rule="evenodd" d="M1271.5 287H1277.9V293H1271.5V287Z" fill="white"/>
</mask>
<g mask="url(#mask12_381_1412)">
<path fill-rule="evenodd" clip-rule="evenodd" d="M1274.7 293C1275.54 293 1276.37 292.681 1276.96 292.121C1277.56 291.563 1277.9 290.789 1277.9 290C1277.9 289.21 1277.56 288.437 1276.96 287.877C1276.37 287.319 1275.54 287 1274.7 287C1273.86 287 1273.03 287.319 1272.44 287.877C1271.84 288.437 1271.5 289.21 1271.5 290C1271.5 290.789 1271.84 291.563 1272.44 292.121C1273.03 292.681 1273.86 293 1274.7 293Z" fill="#130D3A"/>
</g>
<mask id="mask13_381_1412" style="mask-type:luminance" maskUnits="userSpaceOnUse" x="1288" y="287" width="7" height="6">
<path fill-rule="evenodd" clip-rule="evenodd" d="M1288.4 287H1294.8V293H1288.4V287Z" fill="white"/>
</mask>
<g mask="url(#mask13_381_1412)">
<path fill-rule="evenodd" clip-rule="evenodd" d="M1291.6 293C1292.44 293 1293.27 292.681 1293.86 292.121C1294.46 291.563 1294.8 290.789 1294.8 290C1294.8 289.21 1294.46 288.437 1293.86 287.877C1293.27 287.319 1292.44 287 1291.6 287C1290.76 287 1289.93 287.319 1289.34 287.877C1288.74 288.437 1288.4 289.21 1288.4 290C1288.4 290.789 1288.74 291.563 1289.34 292.121C1289.93 292.681 1290.76 293 1291.6 293Z" fill="#130D3A"/>
</g>
<mask id="mask14_381_1412" style="mask-type:luminance" maskUnits="userSpaceOnUse" x="1321" y="287" width="7" height="6">
<path fill-rule="evenodd" clip-rule="evenodd" d="M1321.39 287H1327.81V293H1321.39V287Z" fill="white"/>
</mask>
<g mask="url(#mask14_381_1412)">
<path fill-rule="evenodd" clip-rule="evenodd" d="M1324.59 293H1324.61C1326.37 293 1327.81 291.656 1327.81 290C1327.81 288.342 1326.37 287 1324.61 287H1324.59C1322.82 287 1321.39 288.342 1321.39 290C1321.39 291.656 1322.82 293 1324.59 293Z" fill="#130D3A"/>
</g>
<mask id="mask15_381_1412" style="mask-type:luminance" maskUnits="userSpaceOnUse" x="1304" y="287" width="8" height="6">
<path fill-rule="evenodd" clip-rule="evenodd" d="M1304.89 287H1311.31V293H1304.89V287Z" fill="white"/>
</mask>
<g mask="url(#mask15_381_1412)">
<path fill-rule="evenodd" clip-rule="evenodd" d="M1308.09 293H1308.11C1309.87 293 1311.31 291.656 1311.31 290C1311.31 288.342 1309.87 287 1308.11 287H1308.09C1306.32 287 1304.89 288.342 1304.89 290C1304.89 291.656 1306.32 293 1308.09 293Z" fill="#130D3A"/>
</g>
<mask id="mask16_381_1412" style="mask-type:luminance" maskUnits="userSpaceOnUse" x="1338" y="287" width="7" height="6">
<path fill-rule="evenodd" clip-rule="evenodd" d="M1338.3 287H1344.7V293H1338.3V287Z" fill="white"/>
</mask>
<g mask="url(#mask16_381_1412)">
<path fill-rule="evenodd" clip-rule="evenodd" d="M1341.5 293C1342.35 293 1343.17 292.681 1343.77 292.121C1344.36 291.563 1344.7 290.789 1344.7 290C1344.7 289.21 1344.36 288.437 1343.77 287.877C1343.17 287.319 1342.35 287 1341.5 287C1340.66 287 1339.84 287.319 1339.24 287.877C1338.65 288.437 1338.3 289.21 1338.3 290C1338.3 290.789 1338.65 291.563 1339.24 292.121C1339.84 292.681 1340.66 293 1341.5 293Z" fill="#130D3A"/>
</g>
<circle opacity="0.0361096" cx="-304.5" cy="-157.5" r="575.5" fill="white"/>
<ellipse opacity="0.0458287" cx="-314.5" cy="-177.5" rx="822.5" ry="822" fill="white"/>
<ellipse opacity="0.050665" cx="-345.5" cy="-197" rx="1121.5" ry="1121" fill="white"/>
<path fill-rule="evenodd" clip-rule="evenodd" d="M0 1672.44C0 1672.44 203.75 1754.04 342.946 1747.44C482.143 1740.84 565.528 1713.62 718.478 1727.23C871.428 1740.84 1315.06 1706.5 1440 1612V1771H0V1672.44Z" fill="#F2F5FF"/>
</g>
</g>
<defs>
<linearGradient id="paint0_linear_381_1412" x1="804.757" y1="-952.535" x2="-1088.12" y2="608.974" gradientUnits="userSpaceOnUse">
<stop stop-color="#1234FF"/>
<stop offset="0.394106" stop-color="#1D38D9"/>
<stop offset="1" stop-color="#06146A"/>
</linearGradient>
<clipPath id="clip0_381_1412">
<rect width="1440" height="1770" fill="white"/>
</clipPath>
</defs>
</svg>
