<svg width="24" height="24" viewBox="0 0 24 24" fill="none" xmlns="http://www.w3.org/2000/svg">
<g clip-path="url(#clip0_116_438)">
<path d="M12 23.7188C18.4721 23.7188 23.7188 18.4721 23.7188 12C23.7188 5.52791 18.4721 0.28125 12 0.28125C5.52791 0.28125 0.28125 5.52791 0.28125 12C0.28125 18.4721 5.52791 23.7188 12 23.7188Z" fill="#25A259"/>
<path d="M10.6527 11.0455H13.2591C13.7213 11.0455 14.0972 10.6695 14.0972 10.2073C14.0972 9.74513 13.7213 9.36914 13.2591 9.36914H10.6527C10.1904 9.36914 9.81441 9.74513 9.81441 10.2073C9.81441 10.6695 10.1904 11.0455 10.6527 11.0455ZM10.6527 9.71278H13.2591C13.5317 9.71278 13.7536 9.93464 13.7536 10.2073C13.7536 10.48 13.5317 10.7018 13.2591 10.7018H10.6527C10.38 10.7018 10.158 10.48 10.158 10.2073C10.158 9.93464 10.38 9.71278 10.6527 9.71278ZM10.6527 13.5087H13.2591C13.7213 13.5087 14.0972 13.1327 14.0972 12.6705C14.0972 12.2084 13.7213 11.8324 13.2591 11.8324H10.6527C10.1904 11.8324 9.81441 12.2084 9.81441 12.6705C9.81441 13.1327 10.1904 13.5087 10.6527 13.5087ZM10.6527 12.176H13.2591C13.5317 12.176 13.7536 12.3979 13.7536 12.6705C13.7536 12.9432 13.5317 13.1651 13.2591 13.1651H10.6527C10.38 13.1651 10.158 12.9432 10.158 12.6705C10.158 12.3979 10.38 12.176 10.6527 12.176ZM17.8991 14.0158H16.0037C15.9581 14.0158 15.9144 14.0339 15.8822 14.0661C15.85 14.0983 15.8319 14.142 15.8319 14.1876C15.8319 14.2331 15.85 14.2768 15.8822 14.309C15.9144 14.3413 15.9581 14.3594 16.0037 14.3594H17.8991C17.9447 14.3594 17.9884 14.3413 18.0206 14.309C18.0528 14.2768 18.0709 14.2331 18.0709 14.1876C18.0709 14.142 18.0528 14.0983 18.0206 14.0661C17.9884 14.0339 17.9447 14.0158 17.8991 14.0158ZM17.8991 15.24H16.0037C15.9811 15.24 15.9588 15.2444 15.9379 15.2531C15.9171 15.2617 15.8982 15.2744 15.8822 15.2903C15.8663 15.3063 15.8536 15.3252 15.845 15.3461C15.8363 15.3669 15.8319 15.3892 15.8319 15.4118C15.8319 15.4344 15.8363 15.4567 15.845 15.4775C15.8536 15.4984 15.8663 15.5173 15.8822 15.5333C15.8982 15.5492 15.9171 15.5619 15.9379 15.5705C15.9588 15.5792 15.9811 15.5836 16.0037 15.5836H17.8991C17.9217 15.5836 17.944 15.5792 17.9649 15.5705C17.9857 15.5619 18.0047 15.5492 18.0206 15.5333C18.0366 15.5173 18.0492 15.4984 18.0578 15.4775C18.0665 15.4567 18.0709 15.4344 18.0709 15.4118C18.0709 15.3892 18.0665 15.3669 18.0578 15.3461C18.0492 15.3252 18.0366 15.3063 18.0206 15.2903C18.0047 15.2744 17.9857 15.2617 17.9649 15.2531C17.944 15.2444 17.9217 15.24 17.8991 15.24ZM17.8991 16.4642H16.0037C15.9581 16.4642 15.9144 16.4823 15.8822 16.5145C15.85 16.5467 15.8319 16.5904 15.8319 16.636C15.8319 16.6815 15.85 16.7252 15.8822 16.7575C15.9144 16.7897 15.9581 16.8078 16.0037 16.8078H17.8991C17.9447 16.8078 17.9884 16.7897 18.0206 16.7575C18.0528 16.7252 18.0709 16.6815 18.0709 16.636C18.0709 16.5904 18.0528 16.5467 18.0206 16.5145C17.9884 16.4823 17.9447 16.4642 17.8991 16.4642ZM17.8991 17.6884H16.0037C15.9581 17.6884 15.9144 17.7065 15.8822 17.7387C15.85 17.771 15.8319 17.8147 15.8319 17.8602C15.8319 17.9058 15.85 17.9495 15.8822 17.9817C15.9144 18.0139 15.9581 18.032 16.0037 18.032H17.8991C17.9447 18.032 17.9884 18.0139 18.0206 17.9817C18.0528 17.9495 18.0709 17.9058 18.0709 17.8602C18.0709 17.8147 18.0528 17.771 18.0206 17.7387C17.9884 17.7065 17.9447 17.6884 17.8991 17.6884ZM7.99692 14.0158H6.10148C6.05592 14.0158 6.01222 14.0339 5.98001 14.0661C5.94779 14.0983 5.92969 14.142 5.92969 14.1876C5.92969 14.2331 5.94779 14.2768 5.98001 14.309C6.01222 14.3413 6.05592 14.3594 6.10148 14.3594H7.99692C8.04248 14.3594 8.08618 14.3413 8.1184 14.309C8.15062 14.2768 8.16872 14.2331 8.16872 14.1876C8.16872 14.142 8.15062 14.0983 8.1184 14.0661C8.08618 14.0339 8.04248 14.0158 7.99692 14.0158ZM7.99692 15.24H6.10148C6.07892 15.24 6.05658 15.2444 6.03574 15.2531C6.0149 15.2617 5.99596 15.2744 5.98001 15.2903C5.96405 15.3063 5.9514 15.3252 5.94276 15.3461C5.93413 15.3669 5.92969 15.3892 5.92969 15.4118C5.92969 15.4344 5.93413 15.4567 5.94276 15.4775C5.9514 15.4984 5.96405 15.5173 5.98001 15.5333C5.99596 15.5492 6.0149 15.5619 6.03574 15.5705C6.05658 15.5792 6.07892 15.5836 6.10148 15.5836H7.99692C8.01948 15.5836 8.04182 15.5792 8.06267 15.5705C8.08351 15.5619 8.10245 15.5492 8.1184 15.5333C8.13435 15.5173 8.14701 15.4984 8.15564 15.4775C8.16428 15.4567 8.16872 15.4344 8.16872 15.4118C8.16872 15.3892 8.16428 15.3669 8.15564 15.3461C8.14701 15.3252 8.13435 15.3063 8.1184 15.2903C8.10245 15.2744 8.08351 15.2617 8.06267 15.2531C8.04182 15.2444 8.01948 15.24 7.99692 15.24ZM7.99692 16.4642H6.10148C6.05592 16.4642 6.01222 16.4823 5.98001 16.5145C5.94779 16.5467 5.92969 16.5904 5.92969 16.636C5.92969 16.6815 5.94779 16.7252 5.98001 16.7575C6.01222 16.7897 6.05592 16.8078 6.10148 16.8078H7.99692C8.04248 16.8078 8.08618 16.7897 8.1184 16.7575C8.15062 16.7252 8.16872 16.6815 8.16872 16.636C8.16872 16.5904 8.15062 16.5467 8.1184 16.5145C8.08618 16.4823 8.04248 16.4642 7.99692 16.4642ZM7.99692 17.6884H6.10148C6.05592 17.6884 6.01222 17.7065 5.98001 17.7387C5.94779 17.771 5.92969 17.8147 5.92969 17.8602C5.92969 17.9058 5.94779 17.9495 5.98001 17.9817C6.01222 18.0139 6.05592 18.032 6.10148 18.032H7.99692C8.04248 18.032 8.08618 18.0139 8.1184 17.9817C8.15062 17.9495 8.16872 17.9058 8.16872 17.8602C8.16872 17.8147 8.15062 17.771 8.1184 17.7387C8.08618 17.7065 8.04248 17.6884 7.99692 17.6884Z" fill="white"/>
<path d="M19.8125 19.2049H19.0727V12.8418H19.4932C19.5221 12.8418 19.5505 12.8346 19.5758 12.8207C19.6011 12.8069 19.6225 12.7869 19.638 12.7626C19.6536 12.7383 19.6628 12.7104 19.6647 12.6816C19.6666 12.6528 19.6613 12.624 19.6492 12.5979L19.113 11.4396C18.961 11.1111 18.6288 10.8988 18.2667 10.8988H15.173V7.40134C15.173 7.16696 14.9823 6.97623 14.7479 6.97623H13.1863C12.952 6.97623 12.7612 7.16696 12.7612 7.40134V8.10493H12.1274V6.18765H14.3102C14.4531 6.18765 14.5341 6.02232 14.4452 5.90949L13.9811 5.3199L14.4452 4.7303C14.5336 4.61809 14.4539 4.45215 14.3102 4.45215H11.9556C11.91 4.45215 11.8663 4.47025 11.8341 4.50247C11.8019 4.53468 11.7838 4.57838 11.7838 4.62395V8.10493H11.2389V7.40134C11.2389 7.16696 11.0482 6.97623 10.8138 6.97623H9.25213C9.01761 6.97623 8.82687 7.16696 8.82687 7.40134V10.8988H5.73317C5.37125 10.8988 5.03905 11.1111 4.88708 11.4396L4.35073 12.5979C4.33862 12.624 4.3333 12.6528 4.33525 12.6816C4.33721 12.7104 4.34637 12.7382 4.36191 12.7625C4.37745 12.7868 4.39885 12.8069 4.42415 12.8207C4.44946 12.8346 4.47784 12.8418 4.50669 12.8418H4.9272V19.2049H4.18742C4.14186 19.2049 4.09816 19.223 4.06594 19.2552C4.03373 19.2874 4.01562 19.3311 4.01562 19.3767C4.01562 19.4222 4.03373 19.4659 4.06594 19.4982C4.09816 19.5304 4.14186 19.5485 4.18742 19.5485H19.8124C19.8575 19.5477 19.9004 19.5293 19.9321 19.4972C19.9637 19.4651 19.9814 19.4218 19.9814 19.3767C19.9814 19.3317 19.9637 19.2884 19.9321 19.2562C19.9005 19.2241 19.8575 19.2057 19.8125 19.2049ZM13.6273 5.42626L13.9561 5.84405H12.1273V4.79579H13.9561L13.6273 5.21359C13.6034 5.24389 13.5905 5.28135 13.5905 5.31992C13.5905 5.3585 13.6034 5.39595 13.6273 5.42626ZM18.2667 11.2424C18.4953 11.2424 18.7051 11.3765 18.8011 11.5839L19.2242 12.4982H15.173V11.2424H18.2667ZM5.19894 11.5839C5.24631 11.4821 5.32173 11.3959 5.41634 11.3355C5.51095 11.275 5.62084 11.2427 5.73312 11.2425H8.82683V12.4982H4.77566L5.19894 11.5839ZM5.2708 12.8418H8.82687V19.2049H5.2708V12.8418ZM9.17052 7.40134C9.17052 7.35648 9.20712 7.31987 9.25217 7.31987H10.8138C10.8586 7.31987 10.8952 7.35648 10.8952 7.40134V8.27673C10.8952 8.32229 10.9133 8.36599 10.9456 8.39821C10.9778 8.43042 11.0215 8.44852 11.067 8.44852H12.933C12.9786 8.44852 13.0223 8.43042 13.0545 8.39821C13.0867 8.36599 13.1048 8.32229 13.1048 8.27673V7.40134C13.1048 7.35648 13.1414 7.31987 13.1863 7.31987H14.7479C14.7927 7.31987 14.8294 7.35648 14.8294 7.40134V19.2049H13.5342V16.5145C13.5342 15.6685 12.846 14.9804 11.9999 14.9804C11.154 14.9804 10.4658 15.6685 10.4658 16.5145V19.2049H9.17052V7.40134ZM10.8095 19.2049V16.5145C10.8095 15.8581 11.3435 15.324 11.9999 15.324C12.6564 15.324 13.1906 15.8581 13.1906 16.5145V19.2049H10.8095ZM15.173 19.2049V12.8418H18.7291V19.2049H15.173V19.2049Z" fill="white"/>
</g>
<defs>
<clipPath id="clip0_116_438">
<rect width="24" height="24" fill="white"/>
</clipPath>
</defs>
</svg>
