<svg width="16" height="16" viewBox="0 0 16 16" fill="none" xmlns="http://www.w3.org/2000/svg">
<path d="M9.99479 1.33203H5.99479C5.6266 1.33203 5.32812 1.63051 5.32812 1.9987V3.33203C5.32812 3.70022 5.6266 3.9987 5.99479 3.9987H9.99479C10.363 3.9987 10.6615 3.70022 10.6615 3.33203V1.9987C10.6615 1.63051 10.363 1.33203 9.99479 1.33203Z" stroke="white" stroke-width="2" stroke-linecap="round" stroke-linejoin="round"/>
<path d="M10.6719 2.66797H12.0052C12.3588 2.66797 12.698 2.80844 12.948 3.05849C13.1981 3.30854 13.3385 3.64768 13.3385 4.0013V13.3346C13.3385 13.6883 13.1981 14.0274 12.948 14.2774C12.698 14.5275 12.3588 14.668 12.0052 14.668H4.00521C3.65159 14.668 3.31245 14.5275 3.0624 14.2774C2.81235 14.0274 2.67188 13.6883 2.67188 13.3346V4.0013C2.67188 3.64768 2.81235 3.30854 3.0624 3.05849C3.31245 2.80844 3.65159 2.66797 4.00521 2.66797H5.33854" stroke="white" stroke-width="2" stroke-linecap="round" stroke-linejoin="round"/>
<path d="M6 9.33333L7.33333 10.6667L10 8" stroke="white" stroke-width="2" stroke-linecap="round" stroke-linejoin="round"/>
</svg>
