<svg width="24" height="24" viewBox="0 0 24 24" fill="none" xmlns="http://www.w3.org/2000/svg">
<path d="M23.1812 8.06341L17.7485 2.63064C17.3002 2.18237 16.8455 1.95508 16.3971 1.95508C15.7814 1.95508 15.0625 2.42336 15.0625 3.74317V5.59272C11.1154 5.76475 7.42941 7.38348 4.61803 10.1947C1.64034 13.1722 0.00028125 17.131 0 21.342C6.45914e-06 21.4895 0.0464101 21.6333 0.132643 21.753C0.218875 21.8727 0.340568 21.9622 0.480496 22.0089C0.620424 22.0556 0.771498 22.0572 0.912334 22.0133C1.05317 21.9694 1.17663 21.8823 1.26525 21.7644C4.58489 17.3456 9.5827 14.7343 15.0625 14.5281V16.3492C15.0625 17.6689 15.7814 18.1373 16.3971 18.1373H16.3972C16.8456 18.1373 17.3003 17.91 17.7485 17.4618L23.1812 12.0289C23.7092 11.5011 24 10.7969 24 10.0462C24 9.29556 23.7092 8.59136 23.1812 8.06341Z" fill="#0504AA"/>
</svg>
